<svg width="27" height="27" viewBox="0 0 27 27" fill="none" xmlns="http://www.w3.org/2000/svg">
<g clip-path="url(#clip0_207_606)">
<path d="M13.5 23.625C19.0919 23.625 23.625 19.0919 23.625 13.5C23.625 7.90812 19.0919 3.375 13.5 3.375C7.90812 3.375 3.375 7.90812 3.375 13.5C3.375 19.0919 7.90812 23.625 13.5 23.625Z" stroke="#C8C8C8" stroke-width="1.6875" stroke-linecap="round" stroke-linejoin="round"/>
<path d="M17.7188 9.28127H16.0313C15.6985 9.27988 15.3687 9.3444 15.061 9.47111C14.7532 9.59782 14.4736 9.78422 14.2383 10.0195C14.003 10.2549 13.8166 10.5345 13.6899 10.8422C13.5631 11.1499 13.4986 11.4797 13.5 11.8125V23.625" stroke="#C8C8C8" stroke-width="1.6875" stroke-linecap="round" stroke-linejoin="round"/>
<path d="M10.125 15.1875H16.875" stroke="#C8C8C8" stroke-width="1.6875" stroke-linecap="round" stroke-linejoin="round"/>
</g>
<defs>
<clipPath id="clip0_207_606">
<rect width="27" height="27" fill="white"/>
</clipPath>
</defs>
</svg>
