<svg width="26" height="26" viewBox="0 0 26 26" fill="none" xmlns="http://www.w3.org/2000/svg">
<g clip-path="url(#clip0_207_601)">
<path d="M13 17.0625C15.2437 17.0625 17.0625 15.2437 17.0625 13C17.0625 10.7563 15.2437 8.9375 13 8.9375C10.7563 8.9375 8.9375 10.7563 8.9375 13C8.9375 15.2437 10.7563 17.0625 13 17.0625Z" stroke="#C8C8C8" stroke-width="1.625" stroke-miterlimit="10"/>
<path d="M17.4688 3.65625H8.53125C5.83886 3.65625 3.65625 5.83886 3.65625 8.53125V17.4688C3.65625 20.1611 5.83886 22.3438 8.53125 22.3438H17.4688C20.1611 22.3438 22.3438 20.1611 22.3438 17.4688V8.53125C22.3438 5.83886 20.1611 3.65625 17.4688 3.65625Z" stroke="#C8C8C8" stroke-width="1.625" stroke-linecap="round" stroke-linejoin="round"/>
<path d="M18.2812 8.9375C18.9543 8.9375 19.5 8.39185 19.5 7.71875C19.5 7.04565 18.9543 6.5 18.2812 6.5C17.6082 6.5 17.0625 7.04565 17.0625 7.71875C17.0625 8.39185 17.6082 8.9375 18.2812 8.9375Z" fill="#C8C8C8"/>
</g>
<defs>
<clipPath id="clip0_207_601">
<rect width="26" height="26" fill="white"/>
</clipPath>
</defs>
</svg>
