<svg width="26" height="26" viewBox="0 0 26 26" fill="none" xmlns="http://www.w3.org/2000/svg">
<g clip-path="url(#clip0_207_611)">
<path d="M21.5312 3.65625H4.46875C4.02002 3.65625 3.65625 4.02002 3.65625 4.46875V21.5312C3.65625 21.98 4.02002 22.3438 4.46875 22.3438H21.5312C21.98 22.3438 22.3438 21.98 22.3438 21.5312V4.46875C22.3438 4.02002 21.98 3.65625 21.5312 3.65625Z" stroke="#C8C8C8" stroke-width="1.625" stroke-linecap="round" stroke-linejoin="round"/>
<path d="M12.1875 11.375V17.875" stroke="#C8C8C8" stroke-width="1.625" stroke-linecap="round" stroke-linejoin="round"/>
<path d="M8.9375 11.375V17.875" stroke="#C8C8C8" stroke-width="1.625" stroke-linecap="round" stroke-linejoin="round"/>
<path d="M12.1875 14.2188C12.1875 13.4645 12.4871 12.7412 13.0204 12.2079C13.5537 11.6746 14.277 11.375 15.0312 11.375C15.7855 11.375 16.5088 11.6746 17.0421 12.2079C17.5754 12.7412 17.875 13.4645 17.875 14.2188V17.875" stroke="#C8C8C8" stroke-width="1.625" stroke-linecap="round" stroke-linejoin="round"/>
<path d="M8.9375 9.34375C9.6106 9.34375 10.1562 8.7981 10.1562 8.125C10.1562 7.4519 9.6106 6.90625 8.9375 6.90625C8.2644 6.90625 7.71875 7.4519 7.71875 8.125C7.71875 8.7981 8.2644 9.34375 8.9375 9.34375Z" fill="#C8C8C8"/>
</g>
<defs>
<clipPath id="clip0_207_611">
<rect width="26" height="26" fill="white"/>
</clipPath>
</defs>
</svg>
