<svg width="25" height="25" viewBox="0 0 25 25" fill="none" xmlns="http://www.w3.org/2000/svg">
<g clip-path="url(#clip0_207_618)">
<path d="M15.625 12.5L10.9375 9.375V15.625L15.625 12.5Z" stroke="#C8C8C8" stroke-width="1.5625" stroke-linecap="round" stroke-linejoin="round"/>
<path d="M2.34375 12.5C2.34375 15.4101 2.64648 17.1093 2.87109 17.9882C2.93303 18.2267 3.05014 18.4473 3.21299 18.6322C3.37583 18.8171 3.57985 18.9611 3.80859 19.0527C7.08008 20.3027 12.5 20.2734 12.5 20.2734C12.5 20.2734 17.9199 20.3027 21.1914 19.0527C21.4201 18.9611 21.6242 18.8171 21.787 18.6322C21.9499 18.4473 22.067 18.2267 22.1289 17.9882C22.3535 17.1093 22.6562 15.4101 22.6562 12.5C22.6562 9.58981 22.3535 7.89059 22.1289 7.01169C22.067 6.77321 21.9499 6.55263 21.787 6.36773C21.6242 6.18283 21.4201 6.03879 21.1914 5.94723C17.9199 4.69723 12.5 4.72653 12.5 4.72653C12.5 4.72653 7.08008 4.69723 3.80859 5.94723C3.57985 6.03879 3.37583 6.18283 3.21299 6.36773C3.05014 6.55263 2.93303 6.77321 2.87109 7.01169C2.64648 7.89059 2.34375 9.58981 2.34375 12.5Z" stroke="#C8C8C8" stroke-width="1.5625" stroke-linecap="round" stroke-linejoin="round"/>
</g>
<defs>
<clipPath id="clip0_207_618">
<rect width="25" height="25" fill="white"/>
</clipPath>
</defs>
</svg>
