<svg width="160" height="38" viewBox="0 0 160 38" fill="none" xmlns="http://www.w3.org/2000/svg">
<path d="M47.7047 11.3711H51.1829L56.9462 26.629H53.4298L52.2619 23.2327H46.4987L45.2927 26.629H41.8906L47.7047 11.3711ZM51.3733 20.7296L49.4311 15.1321H49.393L47.3873 20.7296H51.3733Z" fill="#66B463"/>
<path d="M57.5039 15.585H65.9203V17.8743H60.5759V26.6416H57.5039V15.585Z" fill="#66B463"/>
<path d="M66.6094 15.5851H69.5164V16.9939H69.5545C69.9226 16.3901 70.405 15.9624 70.9762 15.6857C71.5475 15.4216 72.1822 15.2832 72.8804 15.2832C73.7563 15.2832 74.518 15.4467 75.14 15.7738C75.7747 16.1008 76.2952 16.5411 76.7141 17.0819C77.133 17.6228 77.4377 18.2518 77.6408 18.9687C77.8439 19.6857 77.9454 20.4404 77.9454 21.2203C77.9454 21.9625 77.8439 22.6794 77.6408 23.3587C77.4377 24.0379 77.133 24.6543 76.7268 25.17C76.3206 25.6983 75.8001 26.1134 75.1908 26.4279C74.5814 26.7423 73.8706 26.8933 73.0454 26.8933C72.3599 26.8933 71.7252 26.7549 71.1413 26.4782C70.5573 26.2014 70.0749 25.7863 69.7068 25.2455H69.6687V30.4782H66.6094V15.5851ZM72.233 24.6417C72.7408 24.6417 73.1597 24.5411 73.4897 24.3398C73.8325 24.1386 74.0991 23.8744 74.3149 23.5599C74.518 23.2329 74.6703 22.8681 74.7592 22.453C74.848 22.0379 74.8861 21.5977 74.8861 21.1448C74.8861 20.7046 74.8353 20.2643 74.7465 19.8367C74.6576 19.409 74.4926 19.0316 74.2768 18.692C74.061 18.3524 73.7817 18.0882 73.4516 17.8744C73.1089 17.6731 72.7027 17.5599 72.2076 17.5599C71.6998 17.5599 71.2809 17.6606 70.9508 17.8744C70.6208 18.0882 70.3415 18.3524 70.1257 18.6794C69.9226 19.0065 69.7703 19.3838 69.6814 19.8241C69.5926 20.2643 69.5545 20.692 69.5545 21.1323C69.5545 21.5851 69.6052 22.0253 69.6941 22.4404C69.783 22.8555 69.9353 23.2329 70.1511 23.5474C70.3542 23.8618 70.6335 24.126 70.9762 24.3272C71.319 24.5411 71.7379 24.6417 72.233 24.6417Z" fill="#66B463"/>
<path d="M84.6343 26.906C83.7584 26.906 82.9714 26.7676 82.2605 26.5034C81.5496 26.2393 80.953 25.8494 80.4452 25.3336C79.9374 24.8305 79.5566 24.2141 79.2773 23.5097C78.998 22.7928 78.8711 22.0003 78.8711 21.1198C78.8711 20.2393 79.0107 19.4343 79.2773 18.7173C79.5439 18.0003 79.9374 17.3839 80.4452 16.8808C80.953 16.3777 81.5496 15.9877 82.2605 15.711C82.9714 15.4343 83.7584 15.2959 84.6343 15.2959C85.5103 15.2959 86.31 15.4343 87.0209 15.711C87.7318 15.9877 88.3411 16.3777 88.8489 16.8808C89.3567 17.3839 89.7375 18.0003 90.0168 18.7173C90.2834 19.4343 90.423 20.2393 90.423 21.1198C90.423 22.0003 90.2834 22.8053 90.0168 23.5097C89.7375 24.2267 89.3567 24.8305 88.8489 25.3336C88.3411 25.8368 87.7318 26.2267 87.0209 26.5034C86.31 26.7676 85.5103 26.906 84.6343 26.906ZM84.6343 24.6418C85.1548 24.6418 85.5864 24.5412 85.9419 24.3399C86.2973 24.1387 86.5766 23.8745 86.7797 23.5349C86.9828 23.1953 87.1351 22.8179 87.224 22.4028C87.3129 21.9877 87.3509 21.5475 87.3509 21.1072C87.3509 20.667 87.3129 20.2267 87.224 19.799C87.1351 19.3714 86.9955 18.994 86.7797 18.667C86.5766 18.3399 86.2846 18.0758 85.9419 17.8619C85.5991 17.6481 85.1548 17.5475 84.6343 17.5475C84.1139 17.5475 83.6823 17.6481 83.3395 17.8619C82.9968 18.0632 82.7175 18.3399 82.5144 18.667C82.3113 18.994 82.1589 19.3714 82.0701 19.799C81.9812 20.2267 81.9431 20.667 81.9431 21.1072C81.9431 21.5475 81.9812 21.9751 82.0701 22.4028C82.1589 22.8179 82.2986 23.1953 82.5144 23.5349C82.7175 23.8745 82.9968 24.1387 83.3395 24.3399C83.6823 24.5412 84.1139 24.6418 84.6343 24.6418Z" fill="#66B463"/>
<path d="M99.0658 26.9682C97.8726 26.9682 96.8062 26.767 95.8796 26.3645C94.9402 25.9619 94.1531 25.3959 93.5057 24.6915C92.8583 23.9745 92.3632 23.1443 92.0205 22.1758C91.6777 21.2198 91.5 20.1758 91.5 19.0689C91.5 17.9494 91.6777 16.8928 92.0205 15.9116C92.3632 14.9305 92.8583 14.0752 93.5057 13.3456C94.1531 12.616 94.9402 12.05 95.8796 11.6349C96.8189 11.2198 97.8726 11.0186 99.0658 11.0186C99.9037 11.0186 100.703 11.1443 101.465 11.3833C102.227 11.6223 102.912 11.9745 103.509 12.4399C104.106 12.9053 104.601 13.4714 104.981 14.1632C105.375 14.8425 105.616 15.6349 105.718 16.5154H102.443C102.379 16.1255 102.252 15.7733 102.049 15.4588C101.846 15.1318 101.592 14.855 101.3 14.616C100.995 14.377 100.653 14.1884 100.272 14.05C99.891 13.9116 99.4975 13.8487 99.0785 13.8487C98.3169 13.8487 97.6695 13.9997 97.1363 14.289C96.6031 14.5783 96.1715 14.9682 95.8415 15.4588C95.5114 15.9494 95.2702 16.5154 95.1179 17.1318C94.9656 17.7607 94.8894 18.4022 94.8894 19.0814C94.8894 19.723 94.9656 20.3519 95.1179 20.9557C95.2702 21.5594 95.5114 22.1003 95.8415 22.5909C96.1715 23.0814 96.6031 23.4588 97.1363 23.7607C97.6695 24.05 98.3169 24.2009 99.0785 24.2009C100.119 24.2009 100.919 23.8865 101.503 23.2575C102.087 22.6286 102.443 21.7984 102.569 20.7796H105.845C105.756 21.7481 105.54 22.616 105.172 23.3708C104.816 24.1381 104.334 24.7796 103.75 25.3204C103.166 25.8613 102.468 26.2764 101.681 26.5657C100.881 26.8299 100.018 26.9682 99.0658 26.9682Z" fill="black"/>
<path d="M113.791 25.8868H113.727C113.511 26.1635 113.194 26.4025 112.762 26.6038C112.331 26.8051 111.886 26.9183 111.429 26.9183C110.592 26.9183 109.893 26.7547 109.309 26.4151C108.738 26.0755 108.268 25.6352 107.913 25.0944C107.558 24.5535 107.304 23.912 107.151 23.195C106.999 22.478 106.91 21.7359 106.91 20.956C106.91 20.0881 107.012 19.3082 107.228 18.6038C107.431 17.912 107.723 17.3082 108.103 16.8176C108.472 16.3271 108.929 15.9497 109.474 15.6856C110.008 15.4214 110.617 15.2956 111.277 15.2956C111.924 15.2956 112.458 15.4088 112.877 15.6352C113.295 15.8617 113.575 16.1258 113.74 16.4277H113.803V11.3711H116.863V16.4151H116.926C117.078 16.1132 117.37 15.8491 117.789 15.6227C118.208 15.3963 118.741 15.283 119.389 15.283C120.049 15.283 120.645 15.4088 121.191 15.673C121.725 15.9371 122.182 16.3145 122.562 16.8051C122.93 17.2956 123.222 17.8868 123.438 18.5912C123.641 19.2956 123.756 20.0755 123.756 20.9434C123.756 21.7107 123.679 22.4529 123.514 23.1824C123.362 23.8994 123.095 24.5409 122.753 25.0818C122.397 25.6352 121.94 26.0755 121.356 26.4025C120.785 26.7422 120.074 26.9057 119.236 26.9057C118.779 26.9057 118.335 26.8051 117.903 26.5912C117.472 26.39 117.155 26.151 116.939 25.8742H116.875V30.4906H113.816V25.8868H113.791ZM112.14 24.6415C112.597 24.6415 112.978 24.5409 113.27 24.3271C113.562 24.1132 113.74 23.8617 113.803 23.5849V18.7422C113.664 18.3019 113.41 18 113.067 17.8239C112.724 17.6478 112.381 17.5724 112.051 17.5724C111.315 17.5724 110.795 17.8742 110.465 18.4906C110.147 19.1069 109.982 19.9497 109.982 21.0189C109.982 21.4717 110.02 21.9246 110.084 22.3522C110.147 22.7925 110.261 23.1698 110.426 23.522C110.592 23.8617 110.807 24.1384 111.087 24.3396C111.353 24.5409 111.709 24.6415 112.14 24.6415ZM118.526 24.6415C118.957 24.6415 119.313 24.5409 119.579 24.3271C119.846 24.1258 120.074 23.8491 120.239 23.5095C120.404 23.1698 120.519 22.7799 120.582 22.3396C120.645 21.8994 120.684 21.4591 120.684 21.0063C120.684 19.9371 120.519 19.0944 120.201 18.478C119.884 17.8617 119.351 17.5598 118.614 17.5598C118.284 17.5598 117.942 17.6478 117.599 17.8113C117.256 17.9749 117.015 18.2893 116.863 18.7296V23.5598C116.926 23.8491 117.091 24.0881 117.396 24.3019C117.7 24.5157 118.056 24.6415 118.526 24.6415Z" fill="black"/>
<path d="M130.32 26.9058C129.444 26.9058 128.657 26.7675 127.946 26.4908C127.248 26.214 126.639 25.8115 126.156 25.3084C125.661 24.7926 125.293 24.1889 125.026 23.4719C124.76 22.7549 124.633 21.975 124.633 21.1197C124.633 20.2895 124.772 19.5222 125.039 18.8178C125.318 18.1008 125.699 17.4845 126.207 16.9687C126.715 16.453 127.311 16.0379 128.01 15.736C128.708 15.4341 129.482 15.2832 130.333 15.2832C131.221 15.2832 132.008 15.4467 132.694 15.7738C133.379 16.1008 133.95 16.5411 134.395 17.0819C134.852 17.6354 135.195 18.2643 135.423 18.9939C135.652 19.7235 135.766 20.4782 135.766 21.258C135.766 21.3587 135.766 21.4593 135.766 21.5474C135.766 21.6354 135.753 21.736 135.74 21.8367H127.692C127.73 22.8178 127.984 23.5348 128.454 23.975C128.911 24.4153 129.571 24.6417 130.434 24.6417C131.056 24.6417 131.589 24.4908 132.034 24.1763C132.478 23.8618 132.757 23.5474 132.859 23.2077H135.55C135.118 24.5285 134.458 25.4845 133.57 26.0505C132.668 26.6165 131.589 26.9058 130.32 26.9058ZM132.668 19.9121C132.529 19.1448 132.275 18.5536 131.907 18.1637C131.539 17.7612 130.98 17.5599 130.231 17.5599C129.723 17.5599 129.317 17.648 129 17.8115C128.682 17.975 128.428 18.1763 128.238 18.4153C128.048 18.6543 127.908 18.9184 127.832 19.1826C127.756 19.4593 127.705 19.6983 127.692 19.9121H132.668Z" fill="black"/>
<path d="M136.985 15.5851H139.892V16.9939H139.93C140.311 16.3901 140.781 15.9624 141.352 15.6857C141.923 15.4216 142.558 15.2832 143.244 15.2832C144.12 15.2832 144.881 15.4467 145.503 15.7738C146.138 16.1008 146.658 16.5411 147.077 17.0819C147.496 17.6228 147.801 18.2518 148.004 18.9687C148.207 19.6857 148.309 20.4404 148.309 21.2203C148.309 21.9625 148.207 22.6794 148.004 23.3587C147.801 24.0379 147.496 24.6543 147.09 25.17C146.684 25.6983 146.163 26.1134 145.554 26.4279C144.945 26.7423 144.234 26.8933 143.409 26.8933C142.723 26.8933 142.076 26.7549 141.505 26.4782C140.921 26.2014 140.438 25.7863 140.07 25.2455H140.032V30.4782H136.973V15.5851H136.985ZM142.609 24.6417C143.117 24.6417 143.536 24.5411 143.866 24.3398C144.208 24.1386 144.475 23.8744 144.691 23.5599C144.894 23.2329 145.046 22.8681 145.135 22.453C145.224 22.0379 145.262 21.5977 145.262 21.1448C145.262 20.7046 145.211 20.2643 145.122 19.8367C145.034 19.409 144.869 19.0316 144.653 18.692C144.437 18.3524 144.158 18.0882 143.828 17.8744C143.485 17.6731 143.079 17.5599 142.584 17.5599C142.076 17.5599 141.657 17.6606 141.327 17.8744C140.984 18.0757 140.717 18.3524 140.502 18.6794C140.299 19.0065 140.146 19.3838 140.057 19.8241C139.969 20.2643 139.93 20.692 139.93 21.1323C139.93 21.5851 139.981 22.0253 140.07 22.4404C140.159 22.8555 140.311 23.2329 140.527 23.5474C140.73 23.8618 141.009 24.126 141.352 24.3272C141.695 24.5411 142.114 24.6417 142.609 24.6417Z" fill="black"/>
<path d="M152.928 26.906C152.395 26.906 151.9 26.8431 151.443 26.7173C150.986 26.5915 150.58 26.3902 150.237 26.1135C149.894 25.8368 149.628 25.4972 149.425 25.0821C149.234 24.667 149.133 24.1764 149.133 23.6104C149.133 22.9814 149.247 22.4657 149.463 22.0632C149.691 21.6607 149.971 21.3336 150.326 21.0946C150.682 20.8556 151.075 20.667 151.532 20.5538C151.989 20.428 152.446 20.3399 152.903 20.2645C153.36 20.189 153.817 20.1387 154.261 20.0884C154.706 20.0506 155.099 19.9877 155.442 19.8997C155.785 19.8116 156.064 19.6858 156.267 19.5223C156.47 19.3588 156.559 19.1198 156.546 18.8053C156.546 18.4909 156.496 18.2393 156.381 18.038C156.267 17.8368 156.127 17.6858 155.95 17.5726C155.772 17.472 155.556 17.3965 155.328 17.3588C155.086 17.3211 154.833 17.3085 154.566 17.3085C153.957 17.3085 153.487 17.4343 153.144 17.6984C152.801 17.95 152.598 18.3777 152.535 18.9814H149.476C149.514 18.2896 149.704 17.6984 150.009 17.2204C150.326 16.7424 150.732 16.3651 151.215 16.0758C151.71 15.7865 152.256 15.5852 152.852 15.472C153.462 15.3462 154.071 15.2959 154.706 15.2959C155.264 15.2959 155.835 15.3336 156.407 15.4091C156.978 15.4846 157.511 15.6355 157.981 15.8745C158.45 16.1009 158.844 16.428 159.149 16.8305C159.453 17.2456 159.606 17.7739 159.606 18.428V24.1764C159.606 24.6795 159.631 25.1575 159.695 25.6104C159.758 26.0632 159.847 26.4028 159.999 26.6418H156.889C156.826 26.4657 156.788 26.3022 156.749 26.1135C156.711 25.9374 156.686 25.7487 156.673 25.5726C156.178 26.0758 155.607 26.4154 154.947 26.6167C154.287 26.8053 153.614 26.906 152.928 26.906ZM154.071 24.8934C154.68 24.8934 155.137 24.7928 155.467 24.5915C155.797 24.3902 156.039 24.1512 156.204 23.8745C156.356 23.5978 156.457 23.3211 156.496 23.0317C156.534 22.7424 156.546 22.516 156.546 22.3525V21.2204C156.419 21.3336 156.254 21.4217 156.077 21.4846C155.886 21.5475 155.683 21.5978 155.455 21.6481C155.226 21.6858 154.985 21.7236 154.744 21.7487C154.503 21.7739 154.249 21.8116 154.007 21.8619C153.766 21.8997 153.538 21.9626 153.322 22.038C153.106 22.1135 152.916 22.2016 152.751 22.3273C152.586 22.4531 152.446 22.6041 152.357 22.7928C152.256 22.9814 152.205 23.2078 152.205 23.4972C152.205 23.7865 152.256 24.0129 152.357 24.189C152.459 24.3651 152.598 24.5034 152.763 24.6167C152.941 24.7173 153.144 24.7928 153.373 24.8431C153.589 24.8808 153.817 24.8934 154.071 24.8934Z" fill="black"/>
<path d="M2.46271 18.7673C2.46271 9.76101 9.85084 2.44025 18.94 2.44025C28.0292 2.44025 35.4173 9.76101 35.4173 18.7673C35.4173 21.2579 34.8461 23.6352 33.8305 25.7484L35.9759 26.956C37.1945 24.478 37.88 21.6981 37.88 18.7673C37.8673 8.4151 29.3748 0 18.94 0C8.50524 0 0 8.4151 0 18.7673C0 20.1635 0.165027 21.5346 0.456998 22.8428L2.75468 21.8239C2.56427 20.8302 2.46271 19.8113 2.46271 18.7673Z" fill="#66B463"/>
<path d="M26.9252 19.3203C26.7982 19.3077 26.4936 19.27 26.1508 19.1819C25.8462 19.1065 25.6304 19.0184 25.4272 18.9304C24.6529 18.6285 24.2721 18.4775 24.0816 18.4272C24.0816 18.4272 23.4342 18.2511 22.4441 18.4398C21.2381 18.6788 19.7021 20.2134 18.8008 22.6033C19.0801 22.2637 19.3339 22.0121 19.5117 21.8486C20.8446 20.641 22.3552 20.3014 22.863 20.2888C23.0661 20.2888 23.4723 20.2511 23.4723 20.2763C23.4723 20.2888 23.1803 20.314 22.8757 20.3769C22.1394 20.5153 21.5809 20.8171 21.1746 21.0436C20.9588 21.1568 20.7176 21.2951 20.4257 21.5215C20.1718 21.7102 19.9941 21.8863 19.829 22.0499C19.5878 22.2763 19.4101 22.4901 19.2705 22.6536C19.4228 22.6033 19.6767 22.5278 19.9814 22.4649C22.3679 21.9618 23.777 23.0058 25.0845 22.8549C26.1381 22.7291 27.5091 21.9115 28.9055 18.8675C28.6262 18.9932 27.763 19.4083 26.9252 19.3203Z" fill="#66B463"/>
<path fill-rule="evenodd" clip-rule="evenodd" d="M15.0951 16.6538C14.9174 16.138 14.7396 15.3707 14.9174 14.5028C15.057 13.7733 15.4378 13.0311 17.4309 11.2575C19.6524 9.28269 21.4296 8.21351 22.2674 6.71666C22.3309 6.60345 23.0164 5.38332 22.9275 5.33301C22.9148 5.33301 22.9021 5.33301 22.9021 5.33301C23.156 5.96194 23.5876 7.08144 24.1335 8.50282C24.6159 9.76068 24.8571 10.4022 25.0348 11.3204C25.2125 12.2512 25.3395 12.855 25.149 13.5972C24.8825 14.6663 24.197 15.3456 23.6003 15.9242C22.1912 17.2701 21.3534 17.2198 20.0459 18.4399C19.2842 19.1443 18.8526 19.899 18.6241 20.3645C18.4464 19.5468 18.2941 18.3141 18.5733 16.8676C18.6368 16.5406 18.8653 15.4336 19.4366 14.4148C19.7285 13.899 20.1094 13.4085 20.1348 13.3707C20.3506 13.094 20.541 12.8802 20.6806 12.7167C20.1221 13.1443 19.2588 13.9242 18.6241 15.1695C18.091 16.2261 17.9767 17.1443 17.8625 18.2009C17.7482 19.1946 17.6847 20.6915 18.0275 22.528C17.0373 20.5657 16.0726 18.616 15.0951 16.6538Z" fill="#66B463"/>
<path d="M26.3146 31.5214C24.9309 31.3956 22.8744 30.8547 20.399 30.1881C19.8912 30.0497 19.4215 29.9239 18.863 29.7227C17.8728 29.383 17.0858 29.0183 16.3114 28.6661C15.8798 28.4774 15.4736 28.2761 15.0293 28.1C13.9883 27.7352 12.922 27.3956 11.8176 27.144C11.2717 27.0183 10.6497 26.9176 9.95153 26.8296C7.38727 26.578 4.49295 26.8925 1.53516 27.6346C1.92868 28.5025 2.52532 29.4962 3.27429 30.4774C3.82015 31.1944 4.34062 31.7981 4.8357 32.3516C7.26032 31.2824 9.17718 31.3956 10.1419 31.4837C11.8303 31.6346 13.2902 32.2132 14.2295 32.5906C15.334 33.0308 15.499 33.2195 17.0096 33.8484C17.1746 33.9113 18.8249 34.6032 20.107 34.9302C22.3032 35.4837 24.9436 35.0434 25.261 34.9931C27.4063 34.6157 28.8916 33.8233 29.2089 33.6472C31.7351 32.2761 33.1823 30.3264 33.8931 29.1818C30.2118 31.6346 27.4952 31.6346 26.3146 31.5214Z" fill="#66B463"/>
<path d="M14.1017 25.6976C14.8507 25.9366 15.4854 26.1882 16.0694 26.4398C16.5264 26.6159 16.996 26.8046 17.4277 27.031C17.4784 27.0561 17.5546 27.0939 17.6435 27.1442C18.5701 27.5593 19.5222 27.9492 20.8805 28.3014C23.229 28.9052 25.679 29.0939 28.2306 28.88C26.2756 27.3957 23.1274 25.4209 18.824 24.3266C11.4867 22.4649 5.39338 24.3643 3.01953 25.2448C4.08586 25.0184 5.54571 24.8046 7.28484 24.8046C9.69678 24.7417 11.9818 25.031 14.1017 25.6976Z" fill="#66B463"/>
<path d="M12.8097 18.8047C13.2921 19.006 14.2188 19.4714 14.955 20.3016C15.1201 20.4902 15.4247 20.8424 15.6786 21.3833C15.7675 21.5846 15.8437 21.7733 15.8944 21.9368C16.1229 21.4965 16.4657 20.6538 16.2118 19.7229C16.0848 19.245 15.831 18.8676 15.7294 18.7292C15.3105 18.138 14.8154 17.811 14.5361 17.6475C12.5812 16.4525 10.6517 16.2135 9.48377 15.245C9.38221 15.1695 8.56977 14.4902 8.56977 14.4902C8.08739 17.4462 8.82366 18.7041 9.44569 19.3078C9.96616 19.7984 10.4866 19.9116 11.8068 20.4148C13.5079 21.0689 14.8408 21.7104 15.7421 22.1883C15.4882 21.5594 15.0312 20.6286 14.1426 19.7733C13.6729 19.3456 13.2032 19.0185 12.8097 18.8047Z" fill="#66B463"/>
<path fill-rule="evenodd" clip-rule="evenodd" d="M12.8979 33.7107C12.0347 33.3963 10.9811 33.0189 9.55931 32.9434C8.02329 32.868 6.77924 33.1698 5.99219 33.4214C10.5114 37.3208 16.3254 38.8931 22.2029 37.4717C19.7021 37.3963 17.9503 36.2642 16.7951 35.6856C15.4876 35.0566 14.8148 34.4025 12.8979 33.7107Z" fill="#66B463"/>
</svg>
